<svg width="17" height="22" viewBox="0 0 17 22" fill="none" xmlns="http://www.w3.org/2000/svg">
<path d="M8.04299 0C3.60805 0 0 3.67289 0 8.1875C0 10.7128 1.27721 13.7779 3.79625 17.2976C5.6397 19.8735 7.45625 21.7106 7.5327 21.7876C7.6732 21.9291 7.85806 22 8.04312 22C8.22282 22 8.40264 21.9331 8.54204 21.7988C8.61865 21.725 10.4398 19.9623 12.2867 17.422C14.8078 13.9543 16.0861 10.8474 16.0861 8.18745C16.086 3.67289 12.4779 0 8.04299 0ZM8.04299 11.7222C5.87479 11.7222 4.11087 9.9582 4.11087 7.79003C4.11087 5.62187 5.87483 3.85791 8.04299 3.85791C10.2112 3.85791 11.9751 5.62187 11.9751 7.79003C11.9751 9.9582 10.2111 11.7222 8.04299 11.7222Z" fill="white"/>
</svg>
