<svg width="87" height="55" viewBox="0 0 87 55" fill="none" xmlns="http://www.w3.org/2000/svg">
<path d="M69.2484 19.0935C67.0034 19.0935 64.8551 19.5134 62.8762 20.2772C61.3258 16.8319 59.9863 13.1882 59.3173 9.79847C58.2429 4.35451 53.4323 0.40332 47.8785 0.40332C46.4709 0.40332 45.3297 1.54452 45.3297 2.95215C45.3297 4.35978 46.4709 5.50098 47.8785 5.50098C48.485 5.50098 49.0755 5.5856 49.6381 5.74278C51.348 6.2206 52.799 7.37708 53.6452 8.93017C53.5767 9.01717 53.5115 9.1074 53.4535 9.2051L52.6617 10.5381L48.6556 17.2823H27.2516L26.0349 14.2202H26.5399C27.9476 14.2202 29.0888 13.079 29.0888 11.6714C29.0888 10.2637 27.9476 9.12252 26.5399 9.12252H17.7517C16.3441 9.12252 15.2029 10.2637 15.2029 11.6714C15.2029 13.079 16.3441 14.2202 17.7517 14.2202H20.5497L22.7739 19.8181C21.1808 19.3474 19.4955 19.0934 17.7517 19.0934C7.96339 19.0935 0 27.0569 0 36.8451C0 46.6333 7.96339 54.5967 17.7516 54.5967C26.6743 54.5967 34.0795 47.9789 35.3195 39.3939H40.0003C40.8995 39.3939 41.7323 38.92 42.1916 38.1469L55.586 15.5972C56.3718 18.0288 57.3553 20.4651 58.4154 22.7927C54.2104 26.042 51.4969 31.1323 51.4969 36.8453C51.4969 46.6335 59.4603 54.5969 69.2484 54.5969C79.0366 54.5969 87 46.6335 87 36.8453C87 27.0571 79.0366 19.0935 69.2484 19.0935ZM17.7516 39.3939H30.1475C28.9649 45.1538 23.8562 49.499 17.7516 49.499C10.7742 49.4989 5.09766 43.8224 5.09766 36.8451C5.09766 29.8678 10.7742 24.1912 17.7516 24.1912C23.8562 24.1912 28.9649 28.5364 30.1475 34.2963H17.7516C16.3439 34.2963 15.2027 35.4375 15.2027 36.8451C15.2027 38.2527 16.3439 39.3939 17.7516 39.3939ZM38.5497 34.2963H35.3195C34.728 30.2013 32.7339 26.5545 29.841 23.8595C29.8145 23.7572 29.7837 23.6553 29.7436 23.5545L29.277 22.3802H45.6278L38.5497 34.2963ZM69.2484 49.4989C62.2709 49.4989 56.5945 43.8223 56.5945 36.8449C56.5945 33.1486 58.188 29.8178 60.7238 27.5021C63.8585 33.4929 66.9203 37.9588 67.1507 38.2928C67.6454 39.0094 68.4411 39.3939 69.2506 39.3939C69.7499 39.3939 70.2544 39.2475 70.6963 38.9425C71.8549 38.1428 72.1458 36.5554 71.3461 35.3969C71.2912 35.3173 68.2068 30.8193 65.1181 24.8867C66.4136 24.4379 67.8024 24.1909 69.2484 24.1909C76.2258 24.1909 81.9023 29.8674 81.9023 36.8448C81.9023 43.8221 76.2258 49.4989 69.2484 49.4989Z" fill="#56CCCE"/>
</svg>
