<svg width="71" height="71" viewBox="0 0 71 71" fill="none" xmlns="http://www.w3.org/2000/svg">
<path d="M63.3929 7.60714H55.7857V2.53576C55.7857 1.13528 54.6504 0 53.25 0C51.8495 0 50.7142 1.13528 50.7142 2.53576V7.60714H20.2857V2.53576C20.2857 1.13528 19.1504 0 17.75 0C16.3497 0 15.2143 1.13528 15.2143 2.53576V7.60714H7.60714C3.40583 7.60714 0 11.013 0 15.2143V63.3929C0 67.5942 3.40583 71 7.60714 71H63.3929C67.5942 71 71 67.5942 71 63.3929V15.2143C71 11.013 67.5942 7.60714 63.3929 7.60714ZM65.9285 63.3929C65.9285 64.7933 64.7932 65.9286 63.3927 65.9286H7.60714C6.20665 65.9286 5.07138 64.7933 5.07138 63.3929V30.4285H65.9285V63.3929ZM65.9285 25.3572H5.07138V15.2143C5.07138 13.8138 6.20665 12.6785 7.60714 12.6785H15.2143V17.7499C15.2143 19.1504 16.3496 20.2857 17.75 20.2857C19.1505 20.2857 20.2858 19.1504 20.2858 17.7499V12.6785H50.7144V17.7499C50.7144 19.1504 51.8496 20.2857 53.2501 20.2857C54.6506 20.2857 55.7859 19.1504 55.7859 17.7499V12.6785H63.393C64.7935 12.6785 65.9288 13.8138 65.9288 15.2143V25.3572H65.9285Z" fill="#56CCCE"/>
<path d="M52.4447 34.1547C51.462 33.2056 49.9042 33.2056 48.9216 34.1547L30.4286 52.6476L22.0784 44.2974C21.071 43.3246 19.4658 43.3525 18.4929 44.3597C17.5438 45.3424 17.5438 46.9002 18.4929 47.8829L28.6358 58.0258C29.6261 59.0156 31.2312 59.0156 32.2213 58.0258L52.507 37.7402C53.4798 36.7328 53.4519 35.1276 52.4447 34.1547Z" fill="#56CCCE"/>
</svg>
