<svg width="33" height="45" viewBox="0 0 33 45" fill="none" xmlns="http://www.w3.org/2000/svg">
<path d="M16.4999 0C7.42847 0 0.0483704 7.51273 0.0483704 16.7472C0.0483704 21.9125 2.66084 28.182 7.81344 35.3815C11.5841 40.6504 15.2998 44.4081 15.4562 44.5656C15.7436 44.8549 16.1217 45 16.5002 45C16.8678 45 17.2356 44.8631 17.5207 44.5884C17.6774 44.4375 21.4025 40.832 25.1803 35.6358C30.337 28.543 32.9517 22.1879 32.9517 16.7471C32.9515 7.51273 25.5712 0 16.4999 0ZM16.4999 23.9771C12.065 23.9771 8.45697 20.369 8.45697 15.9342C8.45697 11.4993 12.0651 7.89119 16.4999 7.89119C20.9348 7.89119 24.5429 11.4993 24.5429 15.9342C24.5429 20.369 20.9347 23.9771 16.4999 23.9771Z" fill="#20284F"/>
</svg>
