<svg width="56" height="76" viewBox="0 0 56 76" fill="none" xmlns="http://www.w3.org/2000/svg">
<path d="M27.9999 0C12.6792 0 0.215057 12.6882 0.215057 28.2841C0.215057 37.0078 4.62722 47.5963 13.3294 59.7554C19.6977 68.654 25.973 75.0003 26.2371 75.2663C26.7225 75.7549 27.3611 76 28.0004 76C28.6212 76 29.2424 75.7687 29.7239 75.3049C29.9886 75.05 36.2798 68.9606 42.6601 60.185C51.3693 48.2059 55.7851 37.473 55.7851 28.2839C55.7848 12.6882 43.3204 0 27.9999 0ZM27.9999 40.4947C20.5098 40.4947 14.4163 34.4011 14.4163 26.911C14.4163 19.421 20.5099 13.3273 27.9999 13.3273C35.49 13.3273 41.5836 19.421 41.5836 26.911C41.5836 34.4011 35.4898 40.4947 27.9999 40.4947Z" fill="#56CCCE"/>
</svg>
