<svg width="20" height="20" viewBox="0 0 20 20" fill="none" xmlns="http://www.w3.org/2000/svg">
<path d="M10.0001 11.2652C3.99089 11.2652 0.681396 14.108 0.681396 19.2701C0.681396 19.6732 1.00815 20 1.41132 20H18.5889C18.9921 20 19.3189 19.6732 19.3189 19.2701C19.3189 14.1083 16.0094 11.2652 10.0001 11.2652ZM2.1678 18.5402C2.45491 14.6805 5.08628 12.7251 10.0001 12.7251C14.914 12.7251 17.5454 14.6805 17.8328 18.5402H2.1678Z" fill="white"/>
<path d="M10 0C7.23969 0 5.1582 2.12336 5.1582 4.93895C5.1582 7.83699 7.33024 10.1944 10 10.1944C12.6699 10.1944 14.8419 7.83699 14.8419 4.93918C14.8419 2.12336 12.7604 0 10 0ZM10 8.7348C8.13508 8.7348 6.61805 7.03211 6.61805 4.93918C6.61805 2.92313 8.04043 1.45984 10 1.45984C11.9283 1.45984 13.382 2.95547 13.382 4.93918C13.382 7.03211 11.865 8.7348 10 8.7348Z" fill="white"/>
</svg>
